<?xml version="1.0" standalone="no"?>
<!DOCTYPE svg PUBLIC "-//W3C//DTD SVG 20010904//EN"
 "http://www.w3.org/TR/2001/REC-SVG-20010904/DTD/svg10.dtd">
<svg version="1.0" xmlns="http://www.w3.org/2000/svg"
 width="1024.000000pt" height="1024.000000pt" viewBox="0 0 1024.000000 1024.000000"
 preserveAspectRatio="xMidYMid meet">
<metadata>
Created by potrace 1.11, written by Peter Selinger 2001-2013
</metadata>
<g transform="translate(0.000000,1024.000000) scale(0.100000,-0.100000)"
fill="#000000" stroke="none">
<path d="M5014 9667 c-78 -156 -427 -845 -619 -1222 -67 -132 -207 -406 -310
-610 -103 -203 -245 -482 -315 -620 -119 -233 -216 -424 -615 -1210 -87 -170
-220 -434 -297 -585 -354 -695 -428 -839 -608 -1195 -106 -209 -248 -488 -315
-620 -67 -132 -196 -384 -285 -560 -89 -176 -227 -446 -305 -600 -78 -154
-217 -426 -307 -605 -91 -179 -243 -477 -337 -662 -94 -185 -171 -340 -171
-345 0 -10 9115 -11 9125 -1 6 6 -75 169 -515 1033 -76 149 -213 419 -305 600
-92 182 -234 461 -315 620 -81 160 -223 439 -315 620 -92 182 -229 452 -305
600 -142 278 -346 682 -642 1265 -94 184 -232 457 -308 605 -76 149 -217 428
-315 620 -98 193 -239 472 -315 620 -76 149 -215 423 -310 610 -95 187 -233
459 -308 605 -436 858 -549 1080 -571 1128 -14 28 -30 52 -35 51 -6 0 -43 -64
-82 -142z m811 -2532 c114 -225 276 -545 360 -710 84 -165 237 -466 340 -670
103 -203 258 -509 345 -680 234 -460 483 -953 700 -1380 106 -209 257 -506
335 -660 443 -872 596 -1175 590 -1175 -3 0 -23 11 -45 25 -22 14 -64 38 -92
54 -29 16 -107 60 -173 99 -66 38 -139 80 -161 93 -84 48 -589 341 -604 350
-20 12 -391 225 -449 257 -25 14 -85 49 -134 78 -49 30 -91 54 -93 54 -2 0
-49 27 -105 60 -55 33 -102 60 -104 60 -2 0 -50 28 -107 62 -56 33 -123 72
-148 86 -74 42 -875 504 -878 507 -3 2 -5 4246 -2 4313 0 13 60 -102 425 -823z
m-1035 -1333 l0 -2158 -37 -21 c-21 -11 -141 -80 -268 -153 -126 -73 -243
-141 -260 -150 -16 -10 -70 -41 -120 -70 -49 -29 -108 -62 -130 -75 -22 -12
-125 -72 -230 -132 -104 -61 -282 -163 -395 -228 -113 -65 -331 -191 -485
-280 -154 -89 -372 -215 -485 -280 -113 -65 -290 -168 -395 -228 -299 -173
-308 -178 -298 -165 6 7 104 198 218 423 419 826 561 1106 710 1400 84 165
232 458 330 650 184 363 401 790 667 1315 86 168 238 467 338 665 100 198 238
468 305 600 67 132 214 421 326 643 112 221 205 402 206 402 2 0 3 -971 3
-2158z m987 -3094 c373 -215 725 -418 783 -451 58 -33 119 -68 135 -77 72 -41
554 -320 700 -405 88 -51 176 -102 195 -113 19 -11 76 -43 125 -72 50 -29 108
-62 130 -75 55 -31 220 -126 222 -128 1 -1 -1336 -2 -2971 -2 -2148 0 -2969 3
-2957 11 15 10 803 465 846 488 11 6 31 19 45 27 14 9 187 110 385 223 198
114 367 212 375 217 8 4 53 31 100 57 47 27 189 109 315 182 127 73 245 141
263 151 295 169 578 332 597 345 11 8 23 14 27 14 4 0 312 -176 685 -392z"/>
</g>
</svg>
